# xmcd
#
# Track frame offsets: 
#        150
#        18657
#        31007
#        48153
#        62723
#        74742
#        96084
#        157194
#        184828
#        206047
#        227240
#        255292
#
# Disc length: 3600 seconds
#
# Revision: 0
# Processed by: cddbd v1.5.2PL0 Copyright (c) Steve Scherf et al.
# Submitted via: ExactAudioCopyFreeDBPlugin 1.0
#
DISCID=a50e0e0c
DTITLE=Various Artist - Zehn Jahre PANTHUSS concerts
DYEAR=2003
DGENRE=Blues
TTITLE0=TSt's Bloody Rhythm Fingers - No One To Get A Gig
TTITLE1=Swingin' Bluebirds - Stop Kidding
TTITLE2=Frank Muschalle Trio - Slotcar Boogie
TTITLE3=Southern Bluesband - Bullfrog Blues
TTITLE4=Thomas Stelzer Trio - Walking By Myself
TTITLE5=Fools'n Town - Tightrope
TTITLE6=Thomas Stelzer Superband - Fats Domino 70th Birthday Special M
TTITLE6=edleyMedley
TTITLE7=Blue Wonder Jazzband - The Creeper
TTITLE8=The Burnes - 1999
TTITLE9=Semper-House-Band Dresden and Gunther Emmerlich - Basin Street B
TTITLE9=lues
TTITLE10=The Gospel Passengers - Medley: I Want Two Wings - It's Me, O
TTITLE10=h Lord - The Gospel Train Is Coming
TTITLE11=Tom Pauls - Dampferfahrt (feat. Uwe Steimle and Jazzband)
EXTD=
EXTT0=
EXTT1=
EXTT2=
EXTT3=
EXTT4=
EXTT5=
EXTT6=
EXTT7=
EXTT8=
EXTT9=
EXTT10=
EXTT11=
PLAYORDER=
